PathFileType	4	(X/Y/Z)	C:/Users/opensim2020/Desktop/walking_exp_matlab/subject03_walking15_straight_01.trc	
DataRate	CameraRate	NumFrames	NumMarkers	Units	OrigDataRate	OrigDataStartFrame	OrigNumFrames	
100.00	100.00	9	47	mm	100.00	648	196	
Frame#	Time	LFHD			RFHD			LBHD			RBHD			C7			T10			CLAV			STRN			RBAK			LSHO			LUPA			LELB			LFRM			LWRA			LWRB			LFIN			RSHO			RUPA			RELB			RFRM			RWRA			RWRB			RFIN			LASI			RASI			LPSI			RPSI			LTHI			LKNE			LTIB			LANK			LHEE			LTOE			RTHI			RKNE			RTIB			RANK			RHEE			RTOE			*39			*40			*41			*42			*43			*44			*45			*46			
		X1	Y1	Z1	X2	Y2	Z2	X3	Y3	Z3	X4	Y4	Z4	X5	Y5	Z5	X6	Y6	Z6	X7	Y7	Z7	X8	Y8	Z8	X9	Y9	Z9	X10	Y10	Z10	X11	Y11	Z11	X12	Y12	Z12	X13	Y13	Z13	X14	Y14	Z14	X15	Y15	Z15	X16	Y16	Z16	X17	Y17	Z17	X18	Y18	Z18	X19	Y19	Z19	X20	Y20	Z20	X21	Y21	Z21	X22	Y22	Z22	X23	Y23	Z23	X24	Y24	Z24	X25	Y25	Z25	X26	Y26	Z26	X27	Y27	Z27	X28	Y28	Z28	X29	Y29	Z29	X30	Y30	Z30	X31	Y31	Z31	X32	Y32	Z32	X33	Y33	Z33	X34	Y34	Z34	X35	Y35	Z35	X36	Y36	Z36	X37	Y37	Z37	X38	Y38	Z38	X39	Y39	Z39	X40	Y40	Z40	X41	Y41	Z41	X42	Y42	Z42	X43	Y43	Z43	X44	Y44	Z44	X45	Y45	Z45	X46	Y46	Z46	X47	Y47	Z47	

148	1.470	1377.80078	776.47028	1612.51672	1509.21936	789.39551	1629.02039	1400.83545	655.83319	1555.36829	1529.18542	673.73029	1571.71777	1462.87317	648.96918	1402.40637	1451.13281	632.55585	1090.62878	1459.06860	773.99792	1333.07935	1453.98535	827.22687	1170.38855	1556.72119	607.99072	1224.14661	1303.86340	719.84680	1366.38904	1237.65747	700.73639	1166.07141	1227.63428	701.17969	1042.35217	1225.80310	717.03857	912.47626	1253.83679	728.66992	792.58160	1205.35046	701.23590	800.01196	1211.19873	714.73944	717.60553	1618.93335	725.27008	1358.30432	1701.27478	771.98413	1147.55066	1718.26306	822.00549	1047.52368	1719.28125	893.93158	931.14093	1681.74316	962.06970	859.92303	1724.33032	935.82910	840.02722	1713.78699	987.92200	787.56281	1343.69910	806.07111	928.58282	1580.61584	785.98322	932.58795	1374.70886	640.41345	946.50226	1523.63855	628.92291	963.84833	1295.84045	825.75336	628.47803	1346.62402	900.23468	473.05341	1339.86768	920.02271	282.54382	1375.73572	973.66693	78.92323	1411.30188	942.21539	32.84595	1405.52344	1121.58423	82.57034	1613.99585	683.63605	647.58069	1579.09021	656.97815	469.94965	1577.98059	563.48682	299.33328	1525.24670	488.17859	93.89452	1473.50623	440.29477	72.94656	1505.52234	622.99323	34.65829	1433.21826	692.66113	1666.28564																					 
149	1.480	1376.77136	788.86243	1611.00244	1508.25183	801.99280	1627.78125	1400.06567	668.34033	1553.46484	1528.34497	686.49219	1570.04639	1461.70398	662.00842	1400.59973	1450.05774	646.31573	1088.96301	1458.52844	787.24902	1331.46997	1453.87952	840.59503	1168.80750	1555.41357	620.80530	1222.51636	1302.93457	733.97034	1364.65137	1237.20679	714.03912	1164.26697	1227.28870	712.66846	1040.64294	1224.76160	723.65845	910.21564	1252.04297	729.01038	789.30524	1202.63208	703.23010	798.74127	1209.32056	710.46875	714.92523	1618.10229	737.73602	1356.80542	1701.36694	784.29199	1146.53052	1718.38940	834.89099	1046.94629	1718.68628	909.70496	932.55994	1680.83728	979.75433	863.82251	1722.92041	953.69312	842.48370	1712.42700	1007.95435	792.28625	1343.70105	820.13708	926.91406	1580.26025	797.49060	930.63623	1372.95605	654.53186	944.93622	1521.88550	641.76947	962.19080	1295.66406	838.36505	626.35413	1347.98352	913.04608	472.07617	1341.91309	936.32483	281.96844	1378.30713	995.10223	79.63467	1414.61548	965.18689	32.99156	1406.43872	1143.52759	86.53078	1613.82263	693.02325	646.89252	1579.29932	664.92834	469.38272	1577.95898	568.57214	300.16299	1525.40234	489.56433	96.10188	1473.54700	441.22391	76.06087	1505.66248	623.09497	34.45321	1432.59888	705.07483	1664.67554																					 
150	1.490	1375.61499	801.24445	1609.66931	1506.94995	814.46399	1626.57751	1399.14136	680.92560	1551.71558	1527.44788	699.31024	1568.51575	1460.28040	675.22791	1399.08289	1449.21094	659.95563	1087.37268	1457.91663	800.57941	1330.03235	1453.66577	854.12262	1167.44080	1553.90918	633.76129	1220.95569	1301.90820	748.28308	1363.12585	1236.69031	727.39789	1162.60730	1227.02112	724.50995	1039.22241	1223.96387	730.96301	908.43939	1250.22363	730.30060	786.76385	1199.85242	706.41913	798.07605	1207.31580	706.99072	713.17303	1617.16504	750.20544	1355.49829	1700.96350	796.43604	1145.56689	1718.00391	847.06494	1046.19958	1717.85046	924.46173	933.81158	1680.03381	996.39917	867.38403	1721.47180	970.59125	844.70013	1711.26868	1026.87646	796.89850	1343.63940	834.59760	925.52991	1580.17908	809.99744	928.99408	1371.49988	669.13312	943.89594	1520.30664	654.90063	960.72443	1295.97241	852.10309	625.07397	1349.00806	926.14532	471.15158	1344.02820	951.33331	281.08029	1381.08972	1013.38263	79.74413	1418.19775	984.76501	32.83266	1407.58826	1162.05518	88.80017	1613.60461	702.68353	646.33966	1579.51221	673.12793	468.80899	1577.94800	574.08551	301.09982	1525.65576	490.97037	98.58587	1473.88855	442.39899	79.66561	1505.70032	623.44952	34.45337	1432.02014	717.50745	1663.33301																					 
151	1.500	1374.41687	813.68878	1608.48804	1505.75659	827.02582	1625.60815	1398.15723	693.61438	1550.09424	1526.44214	712.06915	1567.13159	1459.00854	688.57623	1397.78333	1448.46143	673.99518	1085.92004	1457.17407	813.98962	1328.82214	1453.30176	867.81799	1166.30469	1552.36279	646.74829	1219.47388	1300.73242	762.60199	1361.79956	1235.92798	740.84869	1161.15857	1226.61023	736.49585	1037.76025	1222.85596	738.98651	907.05994	1248.66125	732.81512	785.20502	1197.20886	711.03912	797.85883	1205.67493	704.23053	712.04840	1616.16077	762.60583	1354.46167	1700.42419	808.68018	1144.77332	1717.72827	859.53894	1045.83252	1717.01721	938.67841	934.96918	1679.36841	1012.17218	870.63409	1720.06909	986.53674	846.60455	1709.98962	1044.56592	801.13947	1343.58655	849.11237	924.55090	1579.98291	822.87292	927.44641	1370.16711	682.80585	942.70453	1518.92554	668.31573	959.37634	1296.96057	866.99878	624.40491	1350.50903	939.64014	470.39807	1346.10718	965.31213	279.95151	1384.03101	1028.53479	79.25549	1421.38806	1000.38928	32.14690	1408.79236	1177.16675	89.18035	1613.34473	712.78503	645.92346	1579.83093	682.04175	468.27158	1578.38037	579.96771	302.36246	1526.50085	492.93481	101.59402	1474.52917	443.76193	83.73303	1505.79724	623.73682	34.41191	1431.43274	729.90558	1662.24976																					 
152	1.510	1373.12659	826.15753	1607.46118	1504.43103	839.53784	1624.79883	1397.07813	706.31146	1548.68066	1525.27332	724.82733	1565.93665	1457.15149	701.75861	1396.45837	1447.81580	687.99750	1084.43921	1456.35779	827.46979	1327.78857	1452.86206	881.70160	1165.42285	1550.70178	660.05170	1218.10779	1299.55554	777.15723	1360.62732	1235.49854	753.78827	1159.95276	1225.90613	748.72717	1036.92505	1221.65198	747.73047	905.97675	1247.50464	736.85931	784.10248	1194.87122	717.40399	797.86340	1203.67175	703.18292	712.27155	1615.02551	774.95856	1353.66040	1699.59070	821.04089	1144.23267	1716.99756	871.66327	1045.43909	1716.22888	952.25574	935.80481	1678.85901	1027.09875	873.42126	1718.71252	1001.49860	848.02740	1709.08447	1061.28455	805.05475	1343.46301	863.97723	923.91162	1579.65222	836.16327	925.91266	1369.03235	697.41876	942.05133	1517.73438	682.11334	958.30231	1297.88159	883.04510	624.38275	1351.15735	954.32935	470.48706	1348.16736	978.51422	278.63327	1387.11182	1040.34338	77.85403	1424.94006	1012.18933	30.91731	1409.95483	1188.92786	87.52802	1613.14539	723.51807	645.59454	1580.53796	691.66589	467.91998	1578.87000	586.55701	303.71420	1527.21204	495.06750	104.90945	1475.48914	445.50851	88.40918	1505.92126	624.08936	34.32942	1429.58203	742.09656	1660.59375																					 
153	1.520	1371.78357	838.64392	1606.59778	1503.03601	852.05542	1624.10352	1395.84338	718.98462	1547.40088	1524.08057	737.57404	1564.89819	1455.70166	715.25592	1395.22766	1447.02893	702.16327	1083.21875	1455.47729	841.02936	1326.94409	1452.37744	895.70557	1164.74902	1548.96130	673.49213	1216.76318	1298.26489	791.80377	1359.60681	1234.28320	767.47260	1159.10132	1224.56885	760.68811	1036.07080	1220.54578	757.30157	905.19971	1246.29004	742.63391	783.53662	1192.97559	725.71924	797.78888	1202.72778	703.28839	712.88501	1613.80042	787.23340	1353.04077	1698.41833	833.42023	1143.71899	1715.97510	883.71759	1045.11987	1715.33545	965.23419	936.31403	1678.36841	1041.12646	875.50153	1717.34998	1015.55164	848.95911	1708.43665	1076.80383	808.38708	1343.17468	879.16937	923.46814	1579.19617	849.83411	924.60077	1368.11963	712.55701	941.76447	1516.63708	696.18396	957.40289	1298.58667	899.49323	624.61584	1352.49963	969.03827	470.13214	1350.22742	990.93427	277.16364	1390.34827	1049.24573	75.52554	1428.71594	1020.62720	29.55660	1411.03589	1197.70093	83.92302	1613.08472	734.84961	645.30780	1581.52527	702.15552	467.60669	1579.63196	593.70770	305.23679	1528.23340	497.54974	108.56796	1476.66357	447.65994	93.59725	1506.05481	624.32800	34.14179	1428.76660	754.70276	1660.03723																					 
154	1.530	1370.31946	851.12927	1605.84265	1501.64026	864.57379	1623.56250	1394.56433	731.79449	1546.27637	1522.72595	750.28802	1563.96680	1453.64722	728.49146	1393.97266	1446.14966	716.51355	1082.12256	1454.52502	854.69244	1326.28381	1451.91321	909.91827	1164.23328	1547.14661	687.00183	1215.58423	1296.90308	806.46277	1358.79993	1232.64185	780.97595	1158.51904	1222.62549	772.37531	1035.52222	1219.43250	767.59918	904.58612	1246.01648	749.10474	783.45520	1191.31384	735.47223	797.54156	1202.78296	704.60938	713.92371	1612.45447	799.58026	1352.59863	1696.98242	845.82593	1143.37183	1714.53625	895.35846	1044.64709	1714.45972	977.66174	936.48724	1678.04639	1054.45410	877.17303	1716.15320	1028.72400	849.49628	1707.85034	1091.10852	810.88965	1342.90991	894.50647	923.07550	1578.74939	863.94629	923.43073	1367.45984	726.84967	941.62982	1515.58142	710.61786	956.65765	1298.60303	916.34747	624.98718	1353.34180	984.23090	469.90207	1352.24548	1002.41193	275.34961	1393.53955	1055.66785	72.91670	1430.59521	1025.49011	29.38435	1412.05322	1203.59619	78.61302	1612.95044	747.05768	644.93536	1582.51453	713.52942	467.13474	1580.59021	601.52972	306.81793	1529.58704	500.64401	112.68060	1477.94202	450.31506	99.28923	1506.27576	624.75232	34.01149	1427.39160	767.04370	1659.10046																					 
155	1.540	1368.81677	863.71729	1605.21008	1500.18164	877.06512	1623.16626	1393.12610	744.39624	1545.28345	1521.33374	763.00391	1563.18420	1451.62805	741.85504	1393.12805	1445.15479	731.18158	1081.00574	1453.44397	868.42407	1325.69849	1451.37952	924.26965	1163.95471	1545.27466	700.71271	1214.46179	1295.47363	821.21088	1358.15430	1230.62732	794.16724	1158.27039	1220.44910	784.41241	1035.14233	1217.87659	778.90564	904.14954	1246.17200	756.66974	783.20544	1189.75916	745.95825	797.21265	1202.20044	707.76434	715.89929	1610.96265	811.95667	1352.23926	1695.39648	858.18726	1143.02905	1713.13623	907.05267	1044.30396	1713.55029	989.58356	936.42334	1677.77283	1067.13623	878.24493	1715.04297	1041.21606	849.62128	1707.63208	1104.45593	812.64740	1342.61768	910.13397	922.89746	1578.27332	878.43768	922.34564	1366.39185	742.55481	941.40710	1514.53076	725.24701	956.09882	1298.46497	933.26312	625.37189	1353.92676	999.26990	469.54980	1354.56702	1012.85968	273.40234	1396.03333	1061.03088	71.39971	1432.86670	1027.26013	30.07485	1413.28918	1208.30481	68.88889	1613.06982	760.07898	644.38361	1583.70154	726.01453	466.52054	1581.77185	610.18286	308.53030	1530.85437	503.98196	117.12022	1479.48938	453.47598	105.81882	1506.54907	625.25842	33.95630	1426.04980	779.36829	1658.23096																					 
156	1.550	1367.26111	876.31384	1605.03027	1498.88855	889.72833	1623.25183	1391.66760	757.23694	1544.42737	1519.87109	775.75037	1562.60950	1449.62805	755.04120	1392.26465	1443.96558	746.32251	1080.23877	1452.22485	882.24847	1325.47876	1450.75012	938.69519	1164.14941	1543.12793	714.30164	1213.54468	1293.93225	836.07062	1357.83289	1228.49658	807.24976	1158.11536	1218.37268	796.71478	1034.93030	1216.02734	790.76129	903.95465	1244.72156	766.01263	783.43896	1188.33423	757.02380	796.94641	1201.12170	712.47906	718.35510	1609.34143	824.38763	1352.06519	1693.55579	870.31909	1142.65967	1711.82178	918.69482	1043.98889	1712.63696	1001.05225	936.13031	1677.50110	1079.22522	878.67462	1714.02661	1052.95557	849.44666	1707.44238	1116.83167	813.74457	1342.26563	925.44440	922.90930	1577.88062	893.25464	921.46533	1365.08557	757.96014	941.34991	1513.44470	739.99951	955.78033	1298.20178	949.80371	625.77948	1354.13562	1013.88330	469.64087	1356.45081	1023.33167	272.91901	1396.04675	1064.80103	71.04911	1433.40601	1028.50806	31.84268	1415.02783	1211.04590	57.18386	1613.41077	773.97314	643.71350	1584.86145	739.70764	465.73373	1583.07959	619.70667	310.43970	1532.46094	508.29819	122.13435	1481.24524	457.59744	113.07328	1506.81812	625.89508	33.85897	1424.19788	791.71680	1657.59058																					 
